<?xml version="1.0" standalone="no"?><!DOCTYPE svg PUBLIC "-//W3C//DTD SVG 1.1//EN" "http://www.w3.org/Graphics/SVG/1.1/DTD/svg11.dtd"><svg t="1492256610931" class="icon" style="" viewBox="0 0 1024 1024" version="1.1" xmlns="http://www.w3.org/2000/svg" p-id="7228" xmlns:xlink="http://www.w3.org/1999/xlink" width="64" height="64"><defs><style type="text/css"></style></defs><path d="M863.556012 386.08664c-27.119727-31.068689-61.753518-53.159846-103.862988-65.261041-0.983642-47.042074-11.237509-127.667121-64.210223-187.007117-42.363777-47.46432-102.692214-71.599533-179.277132-71.786665-76.584918 0.187132-136.913355 24.322345-179.277132 71.786665-52.972715 59.339997-63.226582 139.965044-64.210224 187.007117-42.10947 12.096396-76.743261 34.192352-103.862987 65.261041-38.006963 43.630516-56.931273 99.693305-56.931273 166.523375 0.014395 67.372272 34.08679 128.559596 102.797775 187.981164 93.474769 77.621341 181.532311 133.449016 281.796608 216.214084 5.378842 5.258885 11.952449 7.849942 19.692031 7.840346 7.739582 0.009597 14.313189-2.58146 19.692031-7.840346 100.264298-82.765068 188.317041-138.592744 281.796608-216.214084 68.710985-59.421567 102.78338-120.608891 102.797776-187.981164-0.009597-66.83007-18.933907-122.892859-56.94087-166.523375z m-301.147964 255.430208l12.403485 126.395584c1.348309 13.694214-8.819189 24.902934-22.585378 24.902934h-72.050569c-13.766188 0-23.933687-11.208719-22.585377-24.902934l12.403484-126.395584c-23.95288-15.344814-39.88308-42.128663-39.88308-72.683939 0-47.598671 38.525174-86.186223 86.085459-86.325372 47.560285 0.139149 86.08546 38.726701 86.08546 86.325372 0.004798 30.555276-15.920604 57.339125-39.873484 72.683939z m85.912723-324.438684a205.931428 205.931428 0 0 0-54.364208 24.048844c-16.779491 10.522569-31.207838 20.622892-43.299437 30.147425a387.449344 387.449344 0 0 0-34.456255 30.675232 388.97039 388.97039 0 0 0-34.456256-30.675232c-12.096396-9.524532-26.519945-19.624855-43.299436-30.147425a206.084972 206.084972 0 0 0-54.364208-24.048844c-17.024202-4.769464-33.736518-6.712756-50.170535-6.18015 2.11603-38.520376 11.909264-95.94587 48.447962-136.697434 30.348951-33.875667 75.380557-51.091799 133.847271-51.221352 58.466714 0.129553 103.493522 17.345685 133.847271 51.221352 36.533899 40.751564 46.327134 98.172259 48.447962 136.697434-16.443613-0.532606-33.155929 1.410686-50.180131 6.18015z" fill="#f49242" p-id="7229"></path></svg>